<?xml version="1.0" encoding="UTF-8" standalone="no"?>
<!-- Created with Inkscape (http://www.inkscape.org/) -->

<svg
   xmlns:dc="http://purl.org/dc/elements/1.1/"
   xmlns:cc="http://creativecommons.org/ns#"
   xmlns:rdf="http://www.w3.org/1999/02/22-rdf-syntax-ns#"
   xmlns:svg="http://www.w3.org/2000/svg"
   xmlns="http://www.w3.org/2000/svg"
   xmlns:sodipodi="http://sodipodi.sourceforge.net/DTD/sodipodi-0.dtd"
   xmlns:inkscape="http://www.inkscape.org/namespaces/inkscape"
   version="1.1"
   id="svg2"
   xml:space="preserve"
   width="177.64"
   height="68.026665"
   viewBox="0 0 177.64 68.026665"
   sodipodi:docname="ypos_logo_002_web.svg"
   inkscape:version="0.92.3 (2405546, 2018-03-11)"><metadata
     id="metadata8"><rdf:RDF><cc:Work
         rdf:about=""><dc:format>image/svg+xml</dc:format><dc:type
           rdf:resource="http://purl.org/dc/dcmitype/StillImage" /><dc:title /></cc:Work></rdf:RDF></metadata><defs
     id="defs6"><clipPath
       clipPathUnits="userSpaceOnUse"
       id="clipPath26"><path
         d="M 0,51.02 H 133.23 V 0 H 0 Z"
         id="path24"
         inkscape:connector-curvature="0" /></clipPath></defs><sodipodi:namedview
     pagecolor="#ffffff"
     bordercolor="#666666"
     borderopacity="1"
     objecttolerance="10"
     gridtolerance="10"
     guidetolerance="10"
     inkscape:pageopacity="0"
     inkscape:pageshadow="2"
     inkscape:window-width="2560"
     inkscape:window-height="1386"
     id="namedview4"
     showgrid="false"
     inkscape:zoom="5.8275407"
     inkscape:cx="83.340218"
     inkscape:cy="46.841585"
     inkscape:window-x="-8"
     inkscape:window-y="-8"
     inkscape:window-maximized="1"
     inkscape:current-layer="g10"
     showguides="true"
     inkscape:guide-bbox="true" /><g
     id="g10"
     inkscape:groupmode="layer"
     inkscape:label="ypos_logo_002"
     transform="matrix(1.3333333,0,0,-1.3333333,0,68.026667)"
     style="display:inline"><g
   id="g12"
   transform="translate(2.5,27.52)"><path
     d="M 0,0 H 16"
     style="fill:none;stroke:#ffffff;stroke-width:1;stroke-linecap:butt;stroke-linejoin:miter;stroke-miterlimit:10;stroke-dasharray:none;stroke-opacity:1"
     id="path14"
     inkscape:connector-curvature="0" /></g><g
   id="g16"
   transform="translate(2,27.52)"><path
     d="M 0,0 H 16"
     style="fill:none;stroke:#ffffff;stroke-width:1;stroke-linecap:butt;stroke-linejoin:miter;stroke-miterlimit:10;stroke-dasharray:none;stroke-opacity:1"
     id="path18"
     inkscape:connector-curvature="0" /></g><g
   id="g4644"><path
     d="m 31.5659,29.0522 c -0.927,0 -1.574,0.593 -1.574,1.442 0,0.242 0.053,0.493 0.159,0.744 l 0.009,0.021 c 0.221,0.521 0.552,1.449 0.552,1.876 0,0.354 -0.096,0.702 -0.274,1.002 -0.017,0.027 -0.032,0.053 -0.05,0.081 -0.354,0.535 -0.945,0.854 -1.578,0.854 -0.633,0 -1.222,-0.319 -1.577,-0.857 -0.012,-0.017 -0.023,-0.034 -0.033,-0.051 -0.006,-0.009 -0.01,-0.017 -0.015,-0.026 -0.181,-0.301 -0.275,-0.649 -0.275,-1.003 0,-0.425 0.329,-1.354 0.552,-1.876 l 0.005,-0.015 c 0.037,-0.086 0.065,-0.171 0.089,-0.258 0.048,-0.166 0.074,-0.331 0.074,-0.492 0,-0.175 -0.033,-0.336 -0.086,-0.486 -0.199,-0.579 -0.753,-0.956 -1.489,-0.956 h -7.569 l 0.003,-7.75 c 0,-0.277 0.082,-0.484 0.23,-0.584 0.148,-0.098 0.367,-0.09 0.616,0.021 0.148,0.067 1.467,0.646 2.222,0.646 0.998,0 1.877,-0.529 2.383,-1.327 0.287,-0.452 0.456,-0.989 0.456,-1.566 0,-1.595 -1.275,-2.892 -2.839,-2.892 -0.429,-10e-4 -1.04,0.186 -1.514,0.36 -0.361,0.132 -0.644,0.258 -0.708,0.285 -0.249,0.113 -0.468,0.12 -0.616,0.021 -0.148,-0.098 -0.23,-0.306 -0.23,-0.584 l -0.001,-0.914 -0.004,-5.707 h 7.137 c 0.631,0 1.142,0.431 1.142,0.965 v 0.64 c 0,0.344 -0.213,0.644 -0.533,0.816 0.217,0.589 0.388,1.329 0.542,2.269 0.68,4.168 1.786,2.63 5.961,10.297 0.842,1.548 1.489,3.226 1.874,5.004 z"
     style="fill:#ff0000;fill-opacity:1;fill-rule:nonzero;stroke:none"
     id="path30"
     inkscape:connector-curvature="0" /><g
     transform="translate(24.8389,7.9331)"
     id="g36"><path
       inkscape:connector-curvature="0"
       id="path38"
       style="fill:#000000;fill-opacity:1;fill-rule:nonzero;stroke:none"
       d="m 0,0 h -13.678 c -0.565,0 -1.026,-0.434 -1.026,-0.966 v -0.641 c 0,-0.534 0.461,-0.965 1.026,-0.965 H 0 c 0.567,0 1.026,0.431 1.026,0.965 v 0.641 C 1.026,-0.434 0.567,0 0,0" /></g><g
     transform="translate(18.0903,1.02)"
     id="g40"><path
       inkscape:connector-curvature="0"
       id="path42"
       style="fill:#000000;fill-opacity:1;fill-rule:nonzero;stroke:none"
       d="M 0,0 C 2.667,0 5.715,1.284 5.715,3.214 H -5.716 C -5.716,1.284 -2.667,0 0,0" /></g><g
     transform="translate(23.2944,19.2222)"
     id="g44"><path
       inkscape:connector-curvature="0"
       id="path46"
       style="fill:#000000;fill-opacity:1;fill-rule:nonzero;stroke:none"
       d="M 0,0 C -0.139,0.365 -0.384,0.685 -0.713,0.91 -0.738,0.928 -0.762,0.944 -0.789,0.96 -1.085,1.144 -1.425,1.24 -1.774,1.24 -2.19,1.24 -3.102,0.904 -3.613,0.678 L -3.627,0.671 C -3.876,0.562 -4.124,0.506 -4.364,0.506 c -0.832,0 -1.413,0.659 -1.413,1.605 l -10e-4,7.717 -7.601,-0.004 c -0.272,0 -0.476,-0.083 -0.573,-0.234 -0.096,-0.15 -0.09,-0.374 0.021,-0.628 0.063,-0.151 0.633,-1.495 0.633,-2.265 0,-1.595 -1.273,-2.892 -2.838,-2.892 -1.564,0 -2.837,1.297 -2.837,2.892 0,0.77 0.569,2.114 0.634,2.265 0.11,0.254 0.116,0.477 0.021,0.628 -0.098,0.151 -0.301,0.234 -0.575,0.234 L -21.9,9.827 c 0.384,-1.776 1.031,-3.453 1.872,-5.001 4.174,-7.668 5.28,-6.129 5.961,-10.297 0.154,-0.941 0.326,-1.682 0.542,-2.27 -0.319,-0.171 -0.533,-0.471 -0.533,-0.815 V -8.82 -9.196 c 0,-0.533 0.513,-0.965 1.143,-0.965 h 7.137 l 10e-4,5.051 v 1.602 c 0,0.945 0.581,1.606 1.412,1.606 0.24,0 0.484,-0.055 0.731,-0.162 l 0.021,-0.009 c 0.321,-0.143 0.8,-0.328 1.217,-0.448 0.245,-0.069 0.467,-0.116 0.622,-0.116 0.349,0 0.69,0.098 0.984,0.28 0.026,0.016 0.052,0.032 0.078,0.051 0.526,0.362 0.839,0.963 0.839,1.608 C 0.127,-0.455 0.083,-0.22 0,0" /></g><path
     d="m 17.2817,38.375 c -0.147,0.099 -0.367,0.091 -0.616,-0.021 -0.149,-0.066 -1.467,-0.646 -2.222,-0.646 -1.565,0 -2.838,1.298 -2.838,2.893 0,1.595 1.273,2.893 2.838,2.893 0.755,0 2.073,-0.58 2.222,-0.646 0.249,-0.112 0.469,-0.119 0.616,-0.021 0.148,0.098 0.23,0.305 0.23,0.585 l 0.002,3.845 0.003,2.763 c -1.384,-0.04 -2.726,-0.25 -4.007,-0.607 -7.208,-2.007 -12.509,-8.725 -12.51,-16.711 0,-0.907 0.074,-1.794 0.211,-2.66 h 3.224 c 0.927,-0.001 1.575,-0.594 1.575,-1.442 0,-0.243 -0.056,-0.493 -0.161,-0.745 l -0.008,-0.021 c -0.222,-0.52 -0.552,-1.448 -0.552,-1.875 0,-0.355 0.095,-0.703 0.273,-1.003 0.017,-0.027 0.033,-0.053 0.052,-0.08 0.354,-0.536 0.943,-0.855 1.576,-0.855 0.633,0 1.222,0.319 1.578,0.857 0.017,0.025 0.033,0.05 0.049,0.076 0.18,0.302 0.275,0.65 0.275,1.005 0,0.425 -0.331,1.354 -0.552,1.876 l -0.007,0.014 c -0.107,0.254 -0.163,0.505 -0.163,0.751 0,0.848 0.648,1.441 1.576,1.442 h 7.569 l -0.003,7.749 c 0,0.277 -0.082,0.485 -0.23,0.584"
     style="fill:#000000;fill-opacity:1;fill-rule:nonzero;stroke:none"
     id="path54"
     inkscape:connector-curvature="0" /><path
     d="m 18.4839,50.02 v -3.417 -3.225 c -10e-4,-0.944 -0.582,-1.605 -1.414,-1.605 -0.238,0 -0.483,0.056 -0.73,0.163 l -0.021,0.009 c -0.51,0.226 -1.421,0.562 -1.839,0.563 -0.349,0 -0.69,-0.097 -0.984,-0.279 -0.026,-0.016 -0.051,-0.033 -0.078,-0.052 -0.526,-0.361 -0.839,-0.962 -0.839,-1.608 0,-0.645 0.313,-1.246 0.84,-1.608 0.024,-0.018 0.049,-0.033 0.075,-0.049 0.296,-0.184 0.637,-0.28 0.986,-0.28 0.416,0 1.328,0.336 1.839,0.562 l 0.014,0.005 c 0.249,0.11 0.497,0.167 0.736,0.167 0.833,0 1.414,-0.66 1.415,-1.606 v -7.716 l 7.601,0.002 c 0.274,0 0.477,0.084 0.574,0.235 0.096,0.151 0.089,0.374 -0.021,0.629 -0.066,0.15 -0.634,1.494 -0.633,2.265 -10e-4,0.839 0.354,1.593 0.914,2.121 0.506,0.477 1.181,0.772 1.923,0.772 1.564,0 2.836,-1.298 2.836,-2.893 0,-0.771 -0.568,-2.115 -0.632,-2.265 -0.11,-0.255 -0.118,-0.478 -0.021,-0.629 0.097,-0.151 0.3,-0.235 0.574,-0.235 l 3.192,-0.002 c 0.135,0.866 0.209,1.752 0.209,2.658 0,9.406 -7.353,17.056 -16.516,17.318"
     style="fill:#000000;fill-opacity:1;fill-rule:nonzero;stroke:none"
     id="path62"
     inkscape:connector-curvature="0" /></g><text
   transform="scale(1,-1)"
   style="font-variant:normal;font-weight:bold;font-stretch:normal;font-size:24px;font-family:'Myriad Pro';-inkscape-font-specification:MyriadPro-Bold;writing-mode:lr-tb;fill:#ff0000;fill-opacity:1;fill-rule:nonzero;stroke:none"
   id="text70"
   x="35.773014"
   y="-5.7935495"><tspan
     sodipodi:role="line"
     id="tspan68"
     x="35.773014"
     y="-5.7935495"
     style="font-size:32px;-inkscape-font-specification:'sans-serif Bold';font-family:sans-serif;font-weight:bold;font-style:normal;font-stretch:normal;font-variant:normal">YPOS</tspan></text>

</g></svg>